<svg xmlns="http://www.w3.org/2000/svg" xmlns:xlink="http://www.w3.org/1999/xlink" version="1.1" style="shape-rendering:geometricPrecision; text-rendering:geometricPrecision; image-rendering:optimizeQuality; fill-rule:evenodd; clip-rule:evenodd" viewBox="651.5 658.5 2696 2682">
<g><path style="opacity:0.987" fill="#525953" d="M 1954.5,658.5 C 1984.83,658.5 2015.17,658.5 2045.5,658.5C 2045.5,808.833 2045.5,959.167 2045.5,1109.5C 2015.17,1109.5 1984.83,1109.5 1954.5,1109.5C 1954.5,959.167 1954.5,808.833 1954.5,658.5 Z"/></g>
<g><path style="opacity:0.991" fill="#525953" d="M 1506.5,750.5 C 1509.05,750.561 1510.55,751.894 1511,754.5C 1569.64,890.942 1628.14,1027.44 1686.5,1164C 1659.97,1176.69 1632.97,1188.52 1605.5,1199.5C 1603.29,1198.12 1601.79,1196.12 1601,1193.5C 1542.97,1057.94 1484.8,922.442 1426.5,787C 1426.64,786.228 1426.98,785.561 1427.5,785C 1454.14,773.962 1480.47,762.462 1506.5,750.5 Z"/></g>
<g><path style="opacity:0.991" fill="#525953" d="M 2508.5,757.5 C 2536.29,769.564 2563.96,781.897 2591.5,794.5C 2530.5,931.825 2469,1068.82 2407,1205.5C 2379.43,1193.82 2352.27,1181.49 2325.5,1168.5C 2386.79,1031.59 2447.79,894.586 2508.5,757.5 Z"/></g>
<g><path style="opacity:0.991" fill="#525953" d="M 1038.5,1059.5 C 1148.5,1161.33 1258.66,1263 1369,1364.5C 1368.25,1366.98 1366.92,1369.31 1365,1371.5C 1346.5,1391.33 1328,1411.17 1309.5,1431C 1308.83,1431.67 1308.17,1431.67 1307.5,1431C 1198.3,1329.47 1088.8,1228.3 979,1127.5C 978.333,1126.5 978.333,1125.5 979,1124.5C 998.671,1102.66 1018.5,1081 1038.5,1059.5 Z"/></g>
<g><path style="opacity:0.991" fill="#525953" d="M 2974.5,1073.5 C 2994.47,1094.97 3014.3,1116.64 3034,1138.5C 3034.67,1139.5 3034.67,1140.5 3034,1141.5C 2923.26,1241.45 2812.43,1341.28 2701.5,1441C 2700.5,1441.67 2699.5,1441.67 2698.5,1441C 2679.02,1418.68 2659.35,1396.52 2639.5,1374.5C 2751.51,1274.49 2863.18,1174.15 2974.5,1073.5 Z"/></g>
<g><path style="opacity:0.999" fill="#525953" d="M 1976.5,1204.5 C 2209.23,1201.75 2408.06,1281.42 2573,1443.5C 2736.97,1615 2813.64,1820 2803,2058.5C 2785.01,2290.33 2687.84,2480.83 2511.5,2630C 2339.3,2767.94 2142.63,2827.61 1921.5,2809C 1714.45,2785.9 1540.95,2698.06 1401,2545.5C 1254.44,2377.17 1186.77,2180.84 1198,1956.5C 1215.81,1732.04 1308.65,1545.87 1476.5,1398C 1620.62,1276.66 1787.29,1212.16 1976.5,1204.5 Z"/></g>
<g><path style="opacity:0.992" fill="#525953" d="M 734.5,1534.5 C 877.15,1582.16 1019.82,1629.83 1162.5,1677.5C 1153.36,1706.24 1144.03,1734.91 1134.5,1763.5C 992.424,1715.97 850.424,1668.14 708.5,1620C 707.446,1618.61 707.28,1617.11 708,1615.5C 717.142,1588.57 725.975,1561.57 734.5,1534.5 Z"/></g>
<g><path style="opacity:0.992" fill="#525953" d="M 3269.5,1552.5 C 3270.5,1552.41 3271.33,1552.75 3272,1553.5C 3281.55,1581.65 3290.39,1609.99 3298.5,1638.5C 3155.66,1683.89 3012.99,1729.89 2870.5,1776.5C 2869.81,1775.97 2869.31,1775.31 2869,1774.5C 2859.75,1746.27 2851.25,1718.1 2843.5,1690C 2985.64,1644.23 3127.64,1598.4 3269.5,1552.5 Z"/></g>
<g><path style="opacity:0.993" fill="#525953" d="M 1091.5,2048.5 C 1094.78,2048.22 1097.94,2048.55 1101,2049.5C 1103.7,2079.19 1106.54,2108.86 1109.5,2138.5C 960.963,2152.05 812.463,2166.05 664,2180.5C 662.564,2180.44 661.231,2180.11 660,2179.5C 657.297,2149.81 654.464,2120.14 651.5,2090.5C 798.361,2077.01 945.027,2063.01 1091.5,2048.5 Z"/></g>
<g><path style="opacity:0.993" fill="#525953" d="M 2898.5,2061.5 C 3048.15,2077.65 3197.82,2093.65 3347.5,2109.5C 3344.17,2139.5 3340.83,2169.5 3337.5,2199.5C 3188.83,2183.44 3040.16,2167.28 2891.5,2151C 2890.32,2149.82 2889.65,2148.32 2889.5,2146.5C 2892.72,2118.18 2895.72,2089.85 2898.5,2061.5 Z"/></g>
<g><path style="opacity:0.991" fill="#525953" d="M 1194.5,2411.5 C 1209.81,2436.78 1224.65,2462.44 1239,2488.5C 1239.62,2489.45 1239.45,2490.28 1238.5,2491C 1108.67,2564.08 979.004,2637.41 849.5,2711C 848.216,2711.68 847.049,2711.52 846,2710.5C 831.373,2684.75 816.873,2658.91 802.5,2633C 933.391,2559.39 1064.06,2485.56 1194.5,2411.5 Z"/></g>
<g><path style="opacity:0.991" fill="#525953" d="M 2798.5,2423.5 C 2928.96,2498.27 3058.96,2573.94 3188.5,2650.5C 3173.67,2676.17 3158.83,2701.83 3144,2727.5C 3143.28,2728.45 3142.45,2728.62 3141.5,2728C 3012.83,2652.67 2884.17,2577.33 2755.5,2502C 2754.33,2500.13 2754.49,2498.3 2756,2496.5C 2770.42,2472.26 2784.59,2447.93 2798.5,2423.5 Z"/></g>
<g><path style="opacity:0.991" fill="#525953" d="M 1428.5,2705.5 C 1432.26,2707.41 1435.93,2709.58 1439.5,2712C 1460.33,2727.34 1481,2742.84 1501.5,2758.5C 1412.74,2879.01 1323.74,2999.34 1234.5,3119.5C 1233.64,3120.58 1232.64,3120.75 1231.5,3120C 1208,3102.66 1184.67,3085.16 1161.5,3067.5C 1250.51,2946.8 1339.51,2826.14 1428.5,2705.5 Z"/></g>
<g><path style="opacity:0.991" fill="#525953" d="M 2560.5,2712.5 C 2648.64,2834.08 2736.3,2956.08 2823.5,3078.5C 2799.89,3096.64 2775.89,3114.31 2751.5,3131.5C 2663.84,3010.33 2576.34,2889 2489,2767.5C 2488.37,2765.1 2489.2,2763.26 2491.5,2762C 2514.68,2745.64 2537.68,2729.14 2560.5,2712.5 Z"/></g>
<g><path style="opacity:0.992" fill="#525953" d="M 1762.5,2877.5 C 1791.58,2883.19 1820.58,2889.35 1849.5,2896C 1850.02,2896.56 1850.36,2897.23 1850.5,2898C 1817.97,3044.14 1785.64,3190.3 1753.5,3336.5C 1724.17,3330.17 1694.83,3323.83 1665.5,3317.5C 1697.58,3170.77 1729.91,3024.11 1762.5,2877.5 Z"/></g>
<g><path style="opacity:0.992" fill="#525953" d="M 2221.5,2880.5 C 2225.35,2880.49 2227.19,2882.49 2227,2886.5C 2256.9,3031.83 2286.73,3177.17 2316.5,3322.5C 2287.14,3328.37 2257.81,3334.37 2228.5,3340.5C 2197.27,3193.02 2166.94,3045.36 2137.5,2897.5C 2165.72,2892.32 2193.72,2886.66 2221.5,2880.5 Z"/></g>
</svg>